# xmcd
#
# Track frame offsets: 
#        150
#        9761
#        19203
#        32599
#        47109
#        59856
#        73163
#        83736
#        97188
#        109504
#        122692
#        136330
#        150424
#        162673
#        175725
#        190873
#        202390
#        212922
#        224384
#        236398
#        249206
#        261453
#        284558
#        298821
#
# Disc length: 4156 seconds
#
# Revision: 1
# Processed by: cddbd v1.5.2PL0 Copyright (c) Steve Scherf et al.
# Submitted via: ExactAudioCopyFreeDBPlugin 1.0
#
DISCID=6f103a18
DTITLE=Various Artist - Respect - Aretha's Influences and Inspirations
DYEAR=2009
DGENRE=Soul
TTITLE0=Ois Redding - Respect
TTITLE1=Thelma jones  - The House That Jack Built
TTITLE2=Don Covay and The Goodtimers  - See Saw
TTITLE3=Jean Wells - Sit Down And Cry
TTITLE4=Ben E King - Don't Play That Song (You Lied)
TTITLE5=Brenda Holloway - Every Little Bit Hurts
TTITLE6=Dinah Washington - Soulville
TTITLE7=Big Maybelle - Pitiful
TTITLE8=Bobby Bland - Share Your Love With Me
TTITLE9=Helen Humes - Today I Sing The Blues
TTITLE10=Johnny Ace with The Beale Streeters  - My Song
TTITLE11=Little Miss Cornshucks  - Try A Little Tenderness
TTITLE12=Jackie Wilson - I'm Wanderin'
TTITLE13=Percy Mayfield - The River's Invitation
TTITLE14=Ray Charles - Drown In My Tears
TTITLE15=James Carr - The Dark End Of The Street
TTITLE16=Mary Wheeler - Prove It
TTITLE17=Wilson Pickett - I'm In Love
TTITLE18=Howard Tate - Eight Days On The Road
TTITLE19=Nina Simone - To Be Young, Gifted And Black
TTITLE20=Bill Withers - Let Me In Your Life
TTITLE21=Bobby Womack - That's The Way I feel About 'Cha
TTITLE22=Dionne Warwick - I Say A Little Prayer For You
TTITLE23=Clara Ward - The Day Is Passed And Gone
EXTD=
EXTT0=
EXTT1=
EXTT2=
EXTT3=
EXTT4=
EXTT5=
EXTT6=
EXTT7=
EXTT8=
EXTT9=
EXTT10=
EXTT11=
EXTT12=
EXTT13=
EXTT14=
EXTT15=
EXTT16=
EXTT17=
EXTT18=
EXTT19=
EXTT20=
EXTT21=
EXTT22=
EXTT23=
PLAYORDER=
